<svg width="22" height="22" viewBox="32.75 10 22 22" fill="none" xmlns="http://www.w3.org/2000/svg">
<path d="M43.7447 32C42.2262 32 40.8035 31.7125 39.4767 31.1375C38.1498 30.5695 36.9825 29.7815 35.975 28.7735C34.9674 27.7654 34.1762 26.5976 33.6015 25.2701C33.0338 23.9426 32.75 22.5192 32.75 21C32.75 19.4808 33.0338 18.0574 33.6015 16.7299C34.1762 15.3953 34.9674 14.2275 35.975 13.2265C36.9825 12.2185 38.1498 11.4305 39.4767 10.8625C40.8035 10.2875 42.2262 10 43.7447 10C45.2631 10 46.6858 10.2875 48.0127 10.8625C49.3467 11.4305 50.5175 12.2185 51.525 13.2265C52.5326 14.2275 53.3202 15.3953 53.8879 16.7299C54.4626 18.0574 54.75 19.4808 54.75 21C54.75 22.5192 54.4626 23.9426 53.8879 25.2701C53.3202 26.5976 52.5326 27.7654 51.525 28.7735C50.5175 29.7815 49.3467 30.5695 48.0127 31.1375C46.6858 31.7125 45.2631 32 43.7447 32ZM42.5633 26.2498C42.7619 26.2498 42.9429 26.2036 43.1061 26.1113C43.2764 26.019 43.4254 25.8806 43.5531 25.696L48.5342 17.9226C48.6052 17.809 48.669 17.6883 48.7258 17.5605C48.7826 17.4256 48.811 17.2978 48.811 17.1772C48.811 16.9003 48.7045 16.6767 48.4917 16.5063C48.2859 16.3359 48.0517 16.2507 47.7892 16.2507C47.4415 16.2507 47.1541 16.4353 46.9271 16.8045L42.5207 23.8538L40.4771 21.2556C40.3352 21.0781 40.1969 20.9539 40.062 20.8829C39.9272 20.8119 39.7747 20.7764 39.6044 20.7764C39.3347 20.7764 39.1041 20.8758 38.9126 21.0745C38.7281 21.2662 38.6358 21.4969 38.6358 21.7667C38.6358 21.9016 38.6607 22.0329 38.7103 22.1607C38.76 22.2885 38.831 22.4127 38.9232 22.5334L41.5308 25.7067C41.6869 25.8984 41.8466 26.0368 42.0098 26.122C42.173 26.2072 42.3575 26.2498 42.5633 26.2498Z" fill="#525252"/>
</svg>
